HIERARCHY
ROOT joint_Root
{
  OFFSET 0 0 0
  CHANNELS 6 Xposition Yposition Zposition Zrotation Xrotation Yrotation
  JOINT Hips
  {
    OFFSET 0.847027 93.984 -452.225
    CHANNELS 6 Xposition Yposition Zposition Zrotation Xrotation Yrotation
    JOINT Spine
    {
      OFFSET 15.7357 0 0
      CHANNELS 6 Xposition Yposition Zposition Zrotation Xrotation Yrotation
      JOINT Chest
      {
        OFFSET 8.98455 -0.406207 0
        CHANNELS 6 Xposition Yposition Zposition Zrotation Xrotation Yrotation
        JOINT Neck
        {
          OFFSET 16.3773 0 0
          CHANNELS 6 Xposition Yposition Zposition Zrotation Xrotation Yrotation
          JOINT Head
          {
            OFFSET 6.45672 0 0
            CHANNELS 6 Xposition Yposition Zposition Zrotation Xrotation Yrotation
            End Site
            {
              OFFSET 0 0 0
            }
          }
        }
        JOINT Shoulder_L
        {
          OFFSET 12.9942 -0.242716 4.98039
          CHANNELS 6 Xposition Yposition Zposition Zrotation Xrotation Yrotation
          JOINT UpperArm_L
          {
            OFFSET 5.34809 0 0
            CHANNELS 6 Xposition Yposition Zposition Zrotation Xrotation Yrotation
            JOINT LowerArm_L
            {
              OFFSET 24.3286 1.87007e-05 0
              CHANNELS 6 Xposition Yposition Zposition Zrotation Xrotation Yrotation
              JOINT Hand_L
              {
                OFFSET 22.2916 0 0
                CHANNELS 6 Xposition Yposition Zposition Zrotation Xrotation Yrotation
                End Site
                {
                  OFFSET 0 0 0
                }
              }
            }
          }
        }
        JOINT Shoulder_R
        {
          OFFSET 12.9945 -0.242716 -4.98039
          CHANNELS 6 Xposition Yposition Zposition Zrotation Xrotation Yrotation
          JOINT UpperArm_R
          {
            OFFSET -5.34813 0 0
            CHANNELS 6 Xposition Yposition Zposition Zrotation Xrotation Yrotation
            JOINT LowerArm_R
            {
              OFFSET -24.3289 0.000322201 0
              CHANNELS 6 Xposition Yposition Zposition Zrotation Xrotation Yrotation
              JOINT Hand_R
              {
                OFFSET -22.2915 -0.000108084 0
                CHANNELS 6 Xposition Yposition Zposition Zrotation Xrotation Yrotation
                End Site
                {
                  OFFSET 0 0 0
                }
              }
            }
          }
        }
      }
    }
    JOINT UpperLeg_L
    {
      OFFSET -2.19248 -6.46944 0
      CHANNELS 6 Xposition Yposition Zposition Zrotation Xrotation Yrotation
      JOINT LowerLeg_L
      {
        OFFSET 39.0811 0 -1.23785e-05
        CHANNELS 6 Xposition Yposition Zposition Zrotation Xrotation Yrotation
        JOINT Foot_L
        {
          OFFSET 40.9854 0 -1.26872e-05
          CHANNELS 6 Xposition Yposition Zposition Zrotation Xrotation Yrotation
          JOINT Toes_L
          {
            OFFSET 11.7543 0 0
            CHANNELS 6 Xposition Yposition Zposition Zrotation Xrotation Yrotation
            End Site
            {
              OFFSET 0 0 0
            }
          }
        }
      }
    }
    JOINT UpperLeg_R
    {
      OFFSET -2.19251 6.46944 0
      CHANNELS 6 Xposition Yposition Zposition Zrotation Xrotation Yrotation
      JOINT LowerLeg_R
      {
        OFFSET -39.0811 -0.00228153 -0.0401928
        CHANNELS 6 Xposition Yposition Zposition Zrotation Xrotation Yrotation
        JOINT Foot_R
        {
          OFFSET -40.9854 0 0
          CHANNELS 6 Xposition Yposition Zposition Zrotation Xrotation Yrotation
          JOINT Toes_R
          {
            OFFSET -11.7543 0 0
            CHANNELS 6 Xposition Yposition Zposition Zrotation Xrotation Yrotation
            End Site
            {
              OFFSET 0 0 0
            }
          }
        }
      }
    }
  }
}
MOTION
Frames:	4
Frame Time:	0.0333333
0 0 0 0 0 -0 -4.15154 93.5344 -28.522 88.2241 -1.67399 -13.676 15.7357 5.1072e-06 -5.51765e-07 91.9694 74.4514 -91.6121 8.98455 -0.406207 -4.3199e-07 23.3124 1.08492 0.494581 16.3773 -1.3905e-06 -6.99897e-07 31.0926 -3.67554 -1.43951 6.45672 -1.25837e-06 -1.02172e-07 17.9118 -5.10543 -3.33315 12.9942 -0.242716 4.98039 -91.0895 6.05509 -94.7799 5.34809 -7.22636e-06 -6.2814e-07 -40.7639 14.934 -50.9582 24.3286 1.87007e-05 4.90208e-06 -1.01024 -2.96666 -18.8131 22.2916 -9.88446e-07 4.63217e-06 19.4391 5.55728 -9.05415 12.9945 -0.242716 -4.98039 89.2983 4.63251 -96.3769 -5.34813 -1.25947e-06 -3.79883e-06 -45.3973 14.3669 -52.583 -24.3289 0.000322201 -8.65921e-06 6.36187 12.7832 -26.7476 -22.2915 -0.000108084 -4.47941e-06 15.5164 5.32837 -0.737784 -2.19248 -6.46944 -1.22534e-07 -175.606 -6.07144 -25.0802 39.0811 -6.73843e-06 -1.23785e-05 0.0202588 -0.192825 7.99348 40.9854 -6.48686e-06 -1.26872e-05 -4.08416 -1.70438 -47.0845 11.7543 -2.30145e-07 3.05095e-06 -0.0257761 0.0391795 -15.8727 -2.19251 6.46944 -1.45247e-06 -176.302 14.9928 156.134 -39.0811 -0.00228153 -0.0401928 0.013905 -0.106569 5.91857 -40.9854 7.72618e-06 5.99936e-06 -1.6793 -0.585834 -46.0643 -11.7543 -5.6619e-06 -5.58687e-06 -0.119657 0.13003 -15.274 
0 0 0 0 0 -0 -4.40045 93.4526 -28.227 88.2612 -1.6521 -11.9812 15.7357 5.1072e-06 -5.51765e-07 92.5403 74.3386 -92.1295 8.98455 -0.406207 -4.3199e-07 23.5261 1.40223 0.534068 16.3773 -1.3905e-06 -6.99897e-07 30.6329 -3.21244 -0.833315 6.45672 -1.25837e-06 -1.02172e-07 17.6927 -5.72122 -3.43203 12.9942 -0.242716 4.98039 -91.1255 6.25067 -94.7716 5.34809 -7.22636e-06 -6.2814e-07 -42.1012 15.7673 -49.206 24.3286 1.87007e-05 4.90208e-06 -0.904263 -2.67566 -18.6779 22.2916 -9.88446e-07 4.63217e-06 19.4739 5.55401 -8.89726 12.9945 -0.242716 -4.98039 89.1874 5.25087 -96.1905 -5.34813 -1.25947e-06 -3.79883e-06 -45.7027 14.9613 -50.8544 -24.3289 0.000322201 -8.65921e-06 6.36414 12.7205 -26.8663 -22.2915 -0.000108084 -4.47941e-06 15.4234 5.32936 -0.766601 -2.19248 -6.46944 -1.22534e-07 -175.368 -6.22873 -23.1566 39.0811 -6.73843e-06 -1.23785e-05 0.0210396 -0.197547 8.02493 40.9854 -6.48686e-06 -1.26872e-05 -4.18605 -1.38842 -47.3088 11.7543 -2.30145e-07 3.05095e-06 -0.0239437 0.03643 -15.9224 -2.19251 6.46944 -1.45247e-06 -176.762 14.9986 158.165 -39.0811 -0.00228153 -0.0401928 0.0114031 -0.107825 5.98273 -40.9854 7.72618e-06 5.99936e-06 -1.84435 -0.665165 -46.637 -11.7543 -5.6619e-06 -5.58687e-06 -0.113234 0.123204 -15.3429 
0 0 0 0 0 -0 -4.66782 93.3672 -27.8962 88.2964 -1.54022 -10.0838 15.7357 5.1072e-06 -5.51765e-07 92.7881 74.1319 -92.2538 8.98455 -0.406207 -4.3199e-07 23.9316 1.57009 0.74198 16.3773 -1.3905e-06 -6.99897e-07 30.2393 -3.29453 -0.91418 6.45672 -1.25837e-06 -1.02172e-07 17.842 -5.70774 -3.34474 12.9942 -0.242716 4.98039 -91.2137 6.66298 -94.6522 5.34809 -7.22636e-06 -6.2814e-07 -43.3118 16.4841 -47.3546 24.3286 1.87007e-05 4.90208e-06 -0.857825 -2.56086 -18.529 22.2916 -9.88446e-07 4.63217e-06 19.3871 5.55471 -8.92998 12.9945 -0.242716 -4.98039 89.1088 5.79157 -96.2364 -5.34813 -1.25947e-06 -3.79883e-06 -46.0402 15.5028 -49.0624 -24.3289 0.000322201 -8.65921e-06 6.25978 12.5277 -26.8293 -22.2915 -0.000108084 -4.47941e-06 15.3979 5.33057 -0.802082 -2.19248 -6.46944 -1.22534e-07 -175.087 -6.39877 -21.0132 39.0811 -6.73843e-06 -1.23785e-05 0.0218758 -0.206109 8.05486 40.9854 -6.48686e-06 -1.26872e-05 -4.42679 -0.980513 -47.5426 11.7543 -2.30145e-07 3.05095e-06 -0.0246339 0.0374614 -15.9036 -2.19251 6.46944 -1.45247e-06 -177.205 15.2002 160.418 -39.0811 -0.00228153 -0.0401928 0.0140157 -0.108438 6.05644 -40.9854 7.72618e-06 5.99936e-06 -1.95062 -0.65332 -47.2089 -11.7543 -5.6619e-06 -5.58687e-06 -0.0982525 0.107214 -15.5041 
0 0 0 0 0 -0 -4.96294 93.2784 -27.4998 88.3396 -1.42275 -7.94694 15.7357 5.1072e-06 -5.51765e-07 93.1067 73.836 -92.4177 8.98455 -0.406207 -4.3199e-07 24.512 1.79442 0.996633 16.3773 -1.3905e-06 -6.99897e-07 30.3804 -3.33708 -0.80251 6.45672 -1.25837e-06 -1.02172e-07 17.816 -5.94886 -3.36823 12.9942 -0.242716 4.98039 -91.2864 7.07732 -94.671 5.34809 -7.22636e-06 -6.2814e-07 -44.4734 17.224 -45.5527 24.3286 1.87007e-05 4.90208e-06 -0.825881 -2.50737 -18.2516 22.2916 -9.88446e-07 4.63217e-06 19.3983 5.5559 -8.98666 12.9945 -0.242716 -4.98039 89.0503 6.26371 -96.3608 -5.34813 -1.25947e-06 -3.79883e-06 -46.8554 15.7406 -46.9616 -24.3289 0.000322201 -8.65921e-06 6.30095 12.7152 -26.645 -22.2915 -0.000108084 -4.47941e-06 15.2709 5.33392 -0.900735 -2.19248 -6.46944 -1.22534e-07 -174.794 -6.69583 -18.5821 39.0811 -6.73843e-06 -1.23785e-05 0.0226899 -0.212332 8.078 40.9854 -6.48686e-06 -1.26872e-05 -4.59234 -0.388466 -47.7675 11.7543 -2.30145e-07 3.05095e-06 -0.021715 0.0330816 -15.9829 -2.19251 6.46944 -1.45247e-06 -177.74 15.4017 162.978 -39.0811 -0.00228153 -0.0401928 0.0122918 -0.109939 6.14295 -40.9854 7.72618e-06 5.99936e-06 -2.08888 -0.635281 -47.8331 -11.7543 -5.6619e-06 -5.58687e-06 -0.0873093 0.095451 -15.6224 
